<svg width="16" height="16" viewBox="0 0 16 16" fill="none" xmlns="http://www.w3.org/2000/svg">
<g id="Swap me">
<path id="Vector" d="M8 1.33346C6.62174 1.30119 5.28681 1.81617 4.2873 2.7657C3.28778 3.71524 2.70507 5.02202 2.66667 6.40013C2.66667 9.78679 6.60667 13.8268 7.06 14.2735C7.30982 14.5218 7.64775 14.6612 8 14.6612C8.35225 14.6612 8.69018 14.5218 8.94 14.2735C9.39333 13.8268 13.3333 9.78679 13.3333 6.40013C13.2949 5.02202 12.7122 3.71524 11.7127 2.7657C10.7132 1.81617 9.37826 1.30119 8 1.33346ZM8 8.66679C7.60444 8.66679 7.21776 8.5495 6.88886 8.32973C6.55996 8.10997 6.30362 7.79761 6.15224 7.43216C6.00087 7.06671 5.96126 6.66458 6.03843 6.27661C6.1156 5.88865 6.30608 5.53229 6.58579 5.25258C6.86549 4.97288 7.22186 4.78239 7.60982 4.70522C7.99778 4.62805 8.39991 4.66766 8.76537 4.81904C9.13082 4.97041 9.44318 5.22676 9.66294 5.55565C9.8827 5.88455 10 6.27123 10 6.66679C10 7.19723 9.78929 7.70594 9.41421 8.08101C9.03914 8.45608 8.53043 8.66679 8 8.66679Z" fill="#B5B5B5"/>
</g>
</svg>
