<svg width="16" height="17" viewBox="0 0 16 17" fill="none" xmlns="http://www.w3.org/2000/svg">
<g id="Swap me">
<path id="Vector" d="M8.93992 8.50012L13.1399 4.30679C13.2655 4.18125 13.336 4.01099 13.336 3.83346C13.336 3.65592 13.2655 3.48566 13.1399 3.36012C13.0144 3.23459 12.8441 3.16406 12.6666 3.16406C12.489 3.16406 12.3188 3.23459 12.1933 3.36012L7.99992 7.56012L3.80659 3.36012C3.68105 3.23459 3.51079 3.16406 3.33325 3.16406C3.15572 3.16406 2.98545 3.23459 2.85992 3.36012C2.73438 3.48566 2.66386 3.65592 2.66386 3.83346C2.66386 4.01099 2.73438 4.18125 2.85992 4.30679L7.05992 8.50012L2.85992 12.6935C2.79743 12.7554 2.74784 12.8292 2.71399 12.9104C2.68015 12.9916 2.66272 13.0788 2.66272 13.1668C2.66272 13.2548 2.68015 13.3419 2.71399 13.4232C2.74784 13.5044 2.79743 13.5781 2.85992 13.6401C2.92189 13.7026 2.99563 13.7522 3.07687 13.7861C3.15811 13.8199 3.24524 13.8373 3.33325 13.8373C3.42126 13.8373 3.5084 13.8199 3.58964 13.7861C3.67088 13.7522 3.74461 13.7026 3.80659 13.6401L7.99992 9.44012L12.1933 13.6401C12.2552 13.7026 12.329 13.7522 12.4102 13.7861C12.4914 13.8199 12.5786 13.8373 12.6666 13.8373C12.7546 13.8373 12.8417 13.8199 12.923 13.7861C13.0042 13.7522 13.0779 13.7026 13.1399 13.6401C13.2024 13.5781 13.252 13.5044 13.2858 13.4232C13.3197 13.3419 13.3371 13.2548 13.3371 13.1668C13.3371 13.0788 13.3197 12.9916 13.2858 12.9104C13.252 12.8292 13.2024 12.7554 13.1399 12.6935L8.93992 8.50012Z" fill="#F50031"/>
</g>
</svg>
