<svg width="16" height="17" viewBox="0 0 16 17" fill="none" xmlns="http://www.w3.org/2000/svg">
<g id="Swap me">
<path id="Vector" d="M13.1333 4.33332L8.46667 2.58665C8.16572 2.47421 7.83428 2.47421 7.53333 2.58665L2.86667 4.33332C2.8134 4.35821 2.76213 4.38719 2.71333 4.41999L8 6.45332L13.2867 4.45332C13.2391 4.40902 13.1878 4.36887 13.1333 4.33332ZM2 5.57999V11.42C2.00047 11.6913 2.0837 11.956 2.23855 12.1787C2.39341 12.4015 2.61253 12.5717 2.86667 12.6667L7.33333 14.34V7.62665L2 5.57332V5.57999ZM14 5.57999L8.66667 7.63332V14.34L13.1333 12.6667C13.3875 12.5717 13.6066 12.4015 13.7614 12.1787C13.9163 11.956 13.9995 11.6913 14 11.42V5.57999Z" fill="#6D17CE"/>
</g>
</svg>
