<svg width="16" height="16" viewBox="0 0 16 16" fill="none" xmlns="http://www.w3.org/2000/svg">
<g id="Swap me">
<path id="Vector" d="M14.4733 7.52679L10.4733 3.52679C10.3478 3.40125 10.1775 3.33073 10 3.33073C9.82247 3.33073 9.6522 3.40125 9.52667 3.52679C9.40113 3.65232 9.33061 3.82259 9.33061 4.00012C9.33061 4.17766 9.40113 4.34792 9.52667 4.47345L12.3933 7.33345H2C1.82319 7.33345 1.65362 7.40369 1.5286 7.52872C1.40357 7.65374 1.33333 7.82331 1.33333 8.00012C1.33333 8.17693 1.40357 8.3465 1.5286 8.47153C1.65362 8.59655 1.82319 8.66679 2 8.66679H12.3933L9.52667 11.5268C9.46418 11.5888 9.41459 11.6625 9.38074 11.7437C9.34689 11.825 9.32947 11.9121 9.32947 12.0001C9.32947 12.0881 9.34689 12.1753 9.38074 12.2565C9.41459 12.3377 9.46418 12.4115 9.52667 12.4735C9.58864 12.5359 9.66238 12.5855 9.74362 12.6194C9.82485 12.6532 9.91199 12.6707 10 12.6707C10.088 12.6707 10.1751 12.6532 10.2564 12.6194C10.3376 12.5855 10.4114 12.5359 10.4733 12.4735L14.4733 8.47345C14.5358 8.41148 14.5854 8.33774 14.6193 8.25651C14.6531 8.17527 14.6705 8.08813 14.6705 8.00012C14.6705 7.91211 14.6531 7.82498 14.6193 7.74374C14.5854 7.6625 14.5358 7.58876 14.4733 7.52679Z" fill="#B5B5B5"/>
</g>
</svg>
