<svg width="16" height="16" viewBox="0 0 16 16" fill="none" xmlns="http://www.w3.org/2000/svg">
<g id="Control icon">
<path id="Vector" d="M6.00004 12.667C5.9123 12.6675 5.82533 12.6506 5.7441 12.6175C5.66288 12.5843 5.589 12.5354 5.52671 12.4736L2.19338 9.14029C2.06784 9.01475 1.99731 8.84449 1.99731 8.66695C1.99731 8.48942 2.06784 8.31916 2.19338 8.19362C2.31891 8.06808 2.48917 7.99756 2.66671 7.99756C2.84424 7.99756 3.01451 8.06808 3.14004 8.19362L6.00004 11.0603L12.86 4.19362C12.9856 4.06808 13.1558 3.99756 13.3334 3.99756C13.5109 3.99756 13.6812 4.06808 13.8067 4.19362C13.9322 4.31916 14.0028 4.48942 14.0028 4.66695C14.0028 4.84449 13.9322 5.01475 13.8067 5.14029L6.47338 12.4736C6.41108 12.5354 6.3372 12.5843 6.25598 12.6175C6.17475 12.6506 6.08778 12.6675 6.00004 12.667Z" fill="#08332C"/>
</g>
</svg>
